<svg width="462.2" height="440.2" viewBox="0 0 462.2 440.2" xmlns="http://www.w3.org/2000/svg">
    <path d="M18.654 314.572a5.6 5.6 0 0 0-3.13 7.275c10.353 25.99 25.55 48.054 45.623 66.328 19.715 17.95 44.146 31.38 73.67 40.737 13.107 4.154 26.393 7.105 40.394 8.956l5.965.716c15.288 1.651 31.507 2.03 49.328 1.168a5.6 5.6 0 1 0-.541-11.187c-17.26.835-32.9.47-47.518-1.109l-5.832-.7c-13.287-1.756-25.932-4.565-38.412-8.52-28.048-8.89-51.057-21.537-69.513-38.342-18.81-17.124-33.031-37.771-42.76-62.192a5.6 5.6 0 0 0-7.274-3.13zm417.68-4.659c-9.674 22.33-24.007 41.82-43.223 58.899-18.87 16.771-42.176 30.418-70.354 41.303-16.96 6.595-34.277 11.301-53.084 14.388a5.6 5.6 0 1 0 1.814 11.052c19.57-3.212 37.64-8.122 55.317-14.997 29.36-11.341 53.821-25.664 73.748-43.375 20.414-18.145 35.724-38.963 46.06-62.818a5.6 5.6 0 1 0-10.278-4.452zm-136.94 51.49c-12.64 4.913-25.544 8.42-39.566 10.72-9.285 1.524-19.082 2.528-29.649 3.032-12.886.624-24.554.351-35.434-.824l-4.361-.523c-9.893-1.308-19.305-3.397-28.594-6.342a5.6 5.6 0 0 0-3.384 10.677c9.917 3.143 19.97 5.375 30.576 6.777l4.494.54c11.55 1.246 23.798 1.533 37.24.882 10.982-.524 21.205-1.571 30.926-3.166 14.784-2.426 28.441-6.137 41.81-11.335a5.6 5.6 0 1 0-4.058-10.439zM221.432 53.52c-23.234 0-43.556 4.256-63.598 13.116-21.841 9.657-40.473 23.23-55.672 40.452-14.933 16.918-26.402 36.521-34.245 58.443-7.74 21.633-11.649 44.183-11.682 67.31.033 23.007 3.967 44.446 11.752 64.136 7.85 19.702 19.379 36.437 34.604 50.296a5.6 5.6 0 1 0 7.539-8.283c-13.962-12.708-24.514-28.026-31.733-46.144-7.252-18.344-10.931-38.391-10.962-60.006.031-21.833 3.72-43.111 11.028-63.536 7.37-20.598 18.114-38.963 32.096-54.805 14.124-16.003 31.433-28.613 51.804-37.62 18.61-8.226 37.388-12.16 59.069-12.16 2.855 0 5.773.07 8.751.207 25.652 1.222 47.234 6.974 68.69 17.889 20.42 10.442 37.977 23.842 52.471 39.9a5.6 5.6 0 0 0 8.314-7.504c-15.414-17.078-34.061-31.31-55.696-42.374-22.875-11.636-46.006-17.8-73.254-19.098a201.202 201.202 0 0 0-9.276-.22zm165.563 114.346a5.6 5.6 0 0 0-3.21 7.24c7.293 18.907 10.946 38.106 10.98 57.662-.034 19.47-3.65 37.411-10.893 54.18-7.18 16.568-17.816 31.029-32.09 43.714a5.6 5.6 0 0 0 7.44 8.372c15.472-13.75 27.086-29.54 34.929-47.639 7.857-18.192 11.778-37.637 11.814-58.627-.036-20.959-3.948-41.516-11.73-61.693a5.6 5.6 0 0 0-7.24-3.209zm-161.852-54.942a5.6 5.6 0 1 0 0 11.2c1.769 0 3.577.043 5.42.128 15.882.757 29.204 4.31 42.47 11.063 12.654 6.474 23.523 14.776 32.487 24.713 8.837 9.831 15.536 20.664 20.07 32.424 4.508 11.696 6.764 23.56 6.785 35.638-.021 12.01-2.246 23.052-6.7 33.37-4.405 10.173-10.932 19.052-19.712 26.86-8.653 7.694-19.38 13.978-32.41 19.014-7.834 3.048-15.833 5.222-24.533 6.651-5.775.948-11.874 1.573-18.461 1.888-8.022.389-15.272.219-21.997-.507l-2.725-.327a102.406 102.406 0 0 1-17.677-3.923c-12.887-4.086-23.403-9.869-31.807-17.525a5.6 5.6 0 0 0-7.543 8.28c9.663 8.802 21.601 15.367 35.965 19.921 6.369 2.02 12.826 3.455 19.66 4.359l2.858.342c7.395.8 15.225.983 23.804.567 7.002-.334 13.527-1.003 19.737-2.023 9.464-1.554 18.215-3.933 26.769-7.26 14.21-5.493 26.093-12.454 35.803-21.088 9.978-8.873 17.482-19.081 22.55-30.785 5.067-11.74 7.595-24.287 7.619-37.814-.024-13.48-2.538-26.702-7.535-39.666-5.029-13.046-12.452-25.048-22.197-35.89-9.89-10.964-21.85-20.1-35.719-27.195-14.684-7.475-29.557-11.442-47.036-12.275-2.021-.093-4.002-.14-5.945-.14zm-40.94 8.453c-14.045 6.214-26.038 14.956-35.821 26.048-9.592 10.874-16.957 23.471-21.99 37.548-4.96 13.873-7.466 28.335-7.487 43.169.021 14.77 2.549 28.555 7.552 41.216a5.6 5.6 0 1 0 10.416-4.115c-4.476-11.329-6.749-23.722-6.768-37.101.02-13.541 2.305-26.733 6.833-39.398 4.56-12.753 11.202-24.113 19.843-33.91 8.708-9.873 19.379-17.652 31.953-23.215a5.6 5.6 0 0 0-4.532-10.242zm44.296 47.589c-7.143 0-13.457 1.324-19.652 4.065-6.719 2.973-12.474 7.17-17.168 12.492a5.6 5.6 0 0 0 8.401 7.408c3.618-4.104 8.052-7.336 13.299-9.658 4.762-2.107 9.531-3.107 15.12-3.107.747 0 1.513.018 2.29.054 6.702.32 12.264 1.803 17.834 4.64 5.357 2.741 9.943 6.244 13.716 10.428 3.724 4.145 6.537 8.694 8.438 13.628 1.893 4.91 2.836 9.872 2.845 14.911-.009 4.988-.926 9.54-2.758 13.786-1.799 4.155-4.464 7.782-8.082 11-3.599 3.2-8.104 5.84-13.638 7.98-3.321 1.293-6.71 2.214-10.411 2.822-2.476.407-5.1.676-7.948.812-3.452.167-6.552.094-9.372-.21l-1.188-.142a42.944 42.944 0 0 1-7.419-1.647c-5.387-1.708-9.723-4.093-13.155-7.22-3.505-3.194-6.147-7.033-7.966-11.601-1.867-4.728-2.819-9.918-2.827-15.546.006-3.978.472-7.88 1.396-11.687a5.6 5.6 0 0 0-10.883-2.643 60.941 60.941 0 0 0-1.713 14.33c.01 7.02 1.217 13.6 3.616 19.674 2.449 6.152 6.066 11.408 10.834 15.751 4.69 4.274 10.448 7.441 17.312 9.618a54.305 54.305 0 0 0 9.402 2.082l1.321.158c3.491.378 7.17.464 11.18.27 3.263-.156 6.313-.469 9.225-.947 4.464-.733 8.606-1.86 12.646-3.432 6.717-2.596 12.376-5.913 17.032-10.054 4.815-4.283 8.457-9.238 10.918-14.924 2.447-5.669 3.666-11.724 3.678-18.23-.012-6.441-1.213-12.76-3.594-18.938-2.397-6.22-5.932-11.939-10.565-17.094-4.699-5.21-10.376-9.548-16.948-12.911-6.989-3.559-14.101-5.456-22.401-5.852a60.995 60.995 0 0 0-2.815-.066zM134.245 17.317c-28.854 12.76-53.456 30.686-73.526 53.431-19.736 22.364-34.894 48.279-45.264 77.268C5.215 176.641.044 206.476 0 237.057a5.6 5.6 0 0 0 11.2.016c.042-29.304 4.992-57.868 14.8-85.284 9.897-27.666 24.331-52.343 43.117-73.63 18.995-21.527 42.274-38.49 69.657-50.599a5.6 5.6 0 1 0-4.53-10.243zM218.22 0a5.6 5.6 0 0 0 0 11.2c3.833 0 7.75.092 11.747.277 34.438 1.64 63.447 9.373 92.27 24.038 27.404 14.015 50.974 32.009 70.43 53.569 19.172 21.319 33.728 44.845 43.58 70.393 9.798 25.404 14.708 51.212 14.753 77.525a5.6 5.6 0 0 0 11.2-.02c-.048-27.696-5.216-54.862-15.503-81.535-10.348-26.835-25.628-51.53-45.708-73.86-20.383-22.586-45.044-41.413-73.663-56.05-30.241-15.385-60.8-23.531-96.834-25.248C226.315.097 222.227 0 218.22 0z" fill="#51007D" fill-rule="nonzero"/>
</svg>