<svg width="108" height="30" viewBox="0 0 108 30" xmlns="http://www.w3.org/2000/svg">
    <g fill="#211F1F" fill-rule="evenodd">
        <path d="M62.707 7.76c2.09-.985 4.553-.03 5.504 2.132l.064.153a4.43 4.43 0 0 1 .31 1.628v10.615a.469.469 0 0 1-.461.477h-3.018a.466.466 0 0 1-.456-.412l-.004-.065v-9.34c0-.874-.685-1.584-1.53-1.584-.173 0-.344.03-.506.09a22.095 22.095 0 0 0-4.416 2.172l-.103.066v8.596a.469.469 0 0 1-.46.477h-3.018a.469.469 0 0 1-.461-.477V8.261c0-.264.206-.477.46-.477h3.018a.47.47 0 0 1 .46.477l.001 1.438 1.188-.474a80.707 80.707 0 0 0 2.926-1.234l.502-.232zm19.88.541V9.7l.69-.285c.87-.36 1.876-.828 3.016-1.406a.454.454 0 0 1 .618.217.49.49 0 0 1 .047.21v2.569c0 .181-.1.347-.258.426l-.544.278c-1.586.814-2.741 1.453-3.466 1.918l-.104.066v8.596a.469.469 0 0 1-.46.477h-3.018a.469.469 0 0 1-.46-.477V8.301c0-.263.205-.477.46-.477h3.017a.47.47 0 0 1 .461.477zm-38.496-.93c4.107 0 7.436 3.447 7.436 7.697 0 4.251-3.329 7.697-7.436 7.697-4.106 0-7.436-3.446-7.436-7.697 0-4.25 3.33-7.696 7.436-7.696zm0 4.075c-1.932 0-3.499 1.622-3.499 3.622 0 2 1.567 3.623 3.5 3.623 1.932 0 3.499-1.622 3.499-3.623 0-2-1.567-3.622-3.5-3.622zm31.494-3.145v13.987a.469.469 0 0 1-.46.477h-3.016a.469.469 0 0 1-.46-.477V8.301c0-.263.206-.477.46-.477h3.016c.254 0 .46.214.46.477zm17.06 0v13.987a.469.469 0 0 1-.461.477h-3.016a.469.469 0 0 1-.46-.477V8.301c0-.263.206-.477.46-.477h3.016c.254 0 .46.214.46.477zm2.63-.477h3.154c.147 0 .286.073.372.196l2.592 3.671 2.591-3.671a.456.456 0 0 1 .372-.196h3.154c.255 0 .46.214.46.477a.489.489 0 0 1-.082.273l-4.36 6.494 4.397 6.96c.14.22.08.515-.133.66a.45.45 0 0 1-.253.077h-3.167a.457.457 0 0 1-.386-.215l-2.593-4.104-2.594 4.104a.457.457 0 0 1-.385.215h-3.168a.469.469 0 0 1-.46-.477.49.49 0 0 1 .075-.26l4.398-6.96-4.362-6.494a.488.488 0 0 1 .115-.664.45.45 0 0 1 .263-.086z" fill-rule="nonzero"/>
        <path d="M8.688 11.308c.174.09.277.187.477.414l.12.132c.205.207.485.36.825.458.39.112.791.137 1.437.112l.256-.011c1.384-.062 1.995.017 2.704.537.261.191.454.404.69.734l.163.23.025.035a.655.655 0 0 0 .073.08l.009.007h.017l.009-.007a.585.585 0 0 0 .05-.052l.02-.023.023-.031.17-.242c.235-.327.427-.54.687-.73.71-.521 1.321-.6 2.705-.538l.256.011c.646.025 1.048 0 1.437-.113.34-.098.62-.25.823-.456.032-.032.06-.062.119-.13.203-.23.307-.327.48-.417.51-.263.912.088.934.624v.064l-.002.056-.009.104-.016.128c-.07.474-.25.942-.52 1.378-.11.176-.232.347-.367.515a6.165 6.165 0 0 1-.559.603c-.094.09-.194.182-.301.275l-.15.129-.1.083-.1.082c-.186.15-.39.306-.726.56l-.225.17c-.864.653-1.317 1.043-1.737 1.542-.68.812-.998 1.851-1.04 3.16l-.005.187c-.008.54.029 1.114.105 1.777.053.467.208 1.428.392 2.481l.118.662.065.364-.358.041c-.53.06-1.222.086-1.877.073l-.316-.01-.167.006c-.63.019-1.31 0-1.854-.052l-.159-.017-.358-.041.065-.364.141-.793c.176-1.012.318-1.904.37-2.35a13.7 13.7 0 0 0 .104-1.775l-.004-.186c-.043-1.312-.361-2.35-1.04-3.162-.42-.5-.874-.89-1.738-1.543l-.225-.17c-.336-.254-.54-.41-.725-.56l-.1-.082a14.099 14.099 0 0 1-.253-.214 8.771 8.771 0 0 1-.444-.416 6.166 6.166 0 0 1-.414-.46 5.062 5.062 0 0 1-.367-.515 3.624 3.624 0 0 1-.536-1.513l-.01-.114-.001-.058v-.054c.022-.527.424-.878.934-.615z"/>
        <path d="M16.36 0c-.27 0-.545.007-.825.02-2.506.121-4.541.714-6.489 1.723-1.948 1.015-3.596 2.31-4.944 3.833a16.318 16.318 0 0 0-3.064 5.044A15.665 15.665 0 0 0 0 16.18c.003 1.888.35 3.63 1.038 5.255.692 1.629 1.715 3.035 3.064 4.256 1.348 1.221 2.996 2.194 4.944 2.96 1.179.468 2.392.806 3.72 1.028.867.145 1.782.241 2.769.29 1.2.058 2.294.033 3.325-.08l.405-.05a15.417 15.417 0 0 0 2.702-.611c1.948-.63 3.586-1.533 4.913-2.765 1.328-1.232 2.34-2.723 3.033-4.494.684-1.763 1.035-3.695 1.038-5.784a18.392 18.392 0 0 0-1.038-6.095c-.692-1.972-1.705-3.743-3.033-5.276a14.072 14.072 0 0 0-4.913-3.637C20.241.4 18.458 0 16.36 0zm0 4.699c1.424 0 2.586.248 3.771.782 1.33.6 2.434 1.418 3.334 2.458.93 1.074 1.647 2.323 2.147 3.747.509 1.449.765 2.953.767 4.494-.002 1.497-.244 2.842-.709 4.039-.43 1.102-1.038 2-1.854 2.757-.796.739-1.844 1.326-3.22 1.77-.622.201-1.25.344-1.92.434l-.322.04-.178.017c-.664.063-1.382.08-2.182.05l-.243-.011a19.306 19.306 0 0 1-2.25-.233 13.6 13.6 0 0 1-2.82-.778c-1.488-.586-2.657-1.283-3.556-2.098-.868-.786-1.483-1.638-1.895-2.607-.437-1.031-.656-2.137-.658-3.37.003-1.304.241-2.582.728-3.867a11.59 11.59 0 0 1 2.183-3.584c.99-1.119 2.2-2.06 3.623-2.8 1.455-.755 2.87-1.14 4.638-1.225.212-.01.417-.015.616-.015z" fill-rule="nonzero"/>
    </g>
</svg>
